# xmcd
#
# Track frame offsets:
#	150
#	12535
#	38905
#	59592
#	79730
#	101275
#	119560
#	134180
#	155373
#	172529
#	195295
#	225568
#	244233
#	268823
#	286643
#	304181
#	320918
#	342088
#
# Disc length: 4761 seconds
#
# Revision: 0
# Processed by: cddbd v1.5.2PL0 Copyright (c) Steve Scherf et al.
# Submitted via: EasyCDDAExtractor 4.6.9.1
#
DISCID=fa129712
DTITLE=Various Artist - Hillbilly Highlights Vol 2
DYEAR=2006
DGENRE=
TTITLE0=Uncle Tupelo - Screen Door
TTITLE1=Eric Taylor - White Bone
TTITLE2=Stevie Ray Vaughn and Lonnie Mack - Satisfy Susie
TTITLE3=Little Charlie and The Nightcats - Don't Do It
TTITLE4=Lucinda Williams - Car Wheels On A Gravel Road
TTITLE5=Ryan Adams - Batering Lines
TTITLE6=Slaid Cleaves - Broke Down
TTITLE7=Butch Hancock - Eileen
TTITLE8=Norman Blake - Whiskey Deaf And Whiskey Blind
TTITLE9=Magnetic Fields - Papa Was A Rodeo
TTITLE10=Leonard Cohen - The Future
TTITLE11=Soul Asylum - Summer Of Drugs
TTITLE12=Bob Dylan - The Lonesome Death Of Hattie Carrol
TTITLE13=Marah - The Catfisherman
TTITLE14=Wilco - Jesus Etc
TTITLE15=Warren Zevon - My Ride's Here
TTITLE16=Bambata - 1906
TTITLE17=Tom Waits - What's He Building
EXTD=
EXTT0=
EXTT1=
EXTT2=
EXTT3=
EXTT4=
EXTT5=
EXTT6=
EXTT7=
EXTT8=
EXTT9=
EXTT10=
EXTT11=
EXTT12=
EXTT13=
EXTT14=
EXTT15=
EXTT16=
EXTT17=
PLAYORDER=
